IKResults
version=1
nRows=7
nColumns=67
inDegrees=yes

Units are S.I. units (second, meters, Newtons, ...)
Angles are in degrees.

endheader
time	pelvis_tilt	pelvis_list	pelvis_rotation	pelvis_tx	pelvis_ty	pelvis_tz	hip_flexion_r	hip_adduction_r	hip_rotation_r	knee_angle_r	knee_rot_r	knee_adduc_r	ankle_angle_r	ankle_rot_r	ankle_add_r	subtalar_angle_r	mtp_angle_r	mtp_rot_r	mtp_add_r	hip_flexion_l	hip_adduction_l	hip_rotation_l	knee_angle_l	knee_rot_l	knee_adduc_l	ankle_angle_l	ankle_rot_l	ankle_add_l	subtalar_angle_l	mtp_angle_l	mtp_rot_l	mtp_add_l	lumbar_extension	lumbar_bending	lumbar_rotation	neck_flexion	neck_lateral_bending	neck_rotation	arm_flex_r	arm_add_r	arm_rot_r	elbow_flex_r	elbow_rot_r	elbow_add_r	pro_sup_r	wrist_flex_r	wrist_adduc_r	wrist_rot_r	wrist_dev_r	hand_finger_flex_r	hand_finger_adduc_r	hand_finger_rot_r	arm_flex_l	arm_add_l	arm_rot_l	elbow_flex_l	elbow_rot_l	elbow_add_l	pro_sup_l	wrist_flex_l	wrist_adduc_l	wrist_rot_l	wrist_dev_l	hand_finger_flex_l	hand_finger_adduc_l	hand_finger_rot_l
      0.00000000	     11.35236209	     10.94782843	      8.80320341	     -1.91133679	      0.73793312	      0.76688697	    -29.76577933	    -13.19494173	     -1.49305132	    -21.89512638	     -5.00000000	     -1.66757388	      6.55148254	     -5.00000000	      3.59459295	     -5.33997105	      0.99458881	     -0.88180571	      0.63604602	     12.49961221	      5.61632956	      5.32427803	    -20.25578626	      5.00000000	     -1.14745320	     -0.58051373	      4.85159044	     -2.17216310	     -1.65641869	      2.12478579	      0.40452856	     -1.03892137	    -31.19580233	    -12.71171232	     10.71456775	      0.00000000	      0.00000000	      0.00000000	      0.00000000	      0.00000000	      0.00000000	      0.00000000	      0.00000000	      0.00000000	     -0.00042092	      0.00000000	      0.00000000	      0.00000000	      0.00000000	      0.00000000	      0.00000000	      0.00000000	      0.00000000	      0.00000000	      0.00000000	      0.00000000	      0.00000000	      0.00000000	      0.00000000	      0.00000000	      0.00000000	      0.00000000	      0.00000000	      0.00000000	      0.00000000	      0.00000000
      0.00500000	     11.26443507	     11.64317624	      8.73485389	     -1.90459752	      0.73855837	      0.76461834	    -28.62973443	    -13.84261095	     -1.97664069	    -24.73742951	     -5.00000000	     -2.02952241	      4.91827061	     -5.00000000	      3.73829057	     -5.58027411	      1.14631567	     -1.00944880	      0.73130315	     12.21303008	      6.27324268	      4.88374042	    -20.74630738	      5.00000000	     -1.35011467	     -0.72664660	      4.96797070	     -2.59965209	     -1.25506305	      2.56417121	      0.43586769	     -1.24099033	    -31.42379675	    -13.67770907	     10.64338608	      0.00000000	      0.00000000	      0.00000000	      0.00000000	      0.00000000	      0.00000000	      0.00000000	      0.00000000	      0.00000000	     -0.00042092	      0.00000000	      0.00000000	      0.00000000	      0.00000000	      0.00000000	      0.00000000	      0.00000000	      0.00000000	      0.00000000	      0.00000000	      0.00000000	      0.00000000	      0.00000000	      0.00000000	      0.00000000	      0.00000000	      0.00000000	      0.00000000	      0.00000000	      0.00000000	      0.00000000
      0.01000000	     11.16244056	     12.28861615	      8.73849554	     -1.89799429	      0.73911448	      0.76222924	    -27.54301317	    -14.45350539	     -2.16772416	    -27.40809879	     -5.00000000	     -2.24481783	      2.86412743	     -5.00000000	      3.68542606	     -6.01918739	      1.31684910	     -1.13939376	      0.83534640	     11.98528975	      6.98825233	      4.52557404	    -21.27816670	      5.00000000	     -1.37227440	     -0.92507645	      5.00000000	     -2.97592624	     -0.83639683	      3.00693455	      0.45228698	     -1.44086794	    -31.63731991	    -14.53616894	     10.50306120	      0.00000000	      0.00000000	      0.00000000	      0.00000000	      0.00000000	      0.00000000	      0.00000000	      0.00000000	      0.00000000	     -0.00042092	      0.00000000	      0.00000000	      0.00000000	      0.00000000	      0.00000000	      0.00000000	      0.00000000	      0.00000000	      0.00000000	      0.00000000	      0.00000000	      0.00000000	      0.00000000	      0.00000000	      0.00000000	      0.00000000	      0.00000000	      0.00000000	      0.00000000	      0.00000000	      0.00000000
      0.01500000	     11.08342909	     12.89620784	      8.73372044	     -1.89158381	      0.73961839	      0.76002654	    -26.45156016	    -15.00127456	     -2.26597646	    -30.03882670	     -5.00000000	     -2.45864269	      0.99036142	     -5.00000000	      3.51955702	     -6.54569327	      1.47270023	     -1.24878965	      0.92832155	     11.70911895	      7.61880646	      4.23484284	    -21.74690714	      5.00000000	     -1.45993219	     -1.04442460	      5.00000000	     -3.25817134	     -0.50719568	      3.37346928	      0.45544517	     -1.60370817	    -31.88426123	    -15.37939085	     10.35092357	      0.00000000	      0.00000000	      0.00000000	      0.00000000	      0.00000000	      0.00000000	      0.00000000	      0.00000000	      0.00000000	     -0.00042092	      0.00000000	      0.00000000	      0.00000000	      0.00000000	      0.00000000	      0.00000000	      0.00000000	      0.00000000	      0.00000000	      0.00000000	      0.00000000	      0.00000000	      0.00000000	      0.00000000	      0.00000000	      0.00000000	      0.00000000	      0.00000000	      0.00000000	      0.00000000	      0.00000000
      0.02000000	     10.86617865	     13.53458264	      8.73472059	     -1.88507326	      0.74004212	      0.75775334	    -25.30471492	    -15.62500369	     -2.11913390	    -32.48044022	     -5.00000000	     -2.51816747	     -1.01440119	     -5.00000000	      3.29403273	     -7.12827304	      1.66416530	     -1.36248862	      1.03791941	     11.43996318	      8.30233201	      3.85084415	    -21.97570553	      5.00000000	     -1.54354744	     -1.11936441	      5.00000000	     -3.54417640	     -0.22534838	      3.77631856	      0.45196368	     -1.78083951	    -31.93126537	    -16.26486674	     10.19683284	      0.00000000	      0.00000000	      0.00000000	      0.00000000	      0.00000000	      0.00000000	      0.00000000	      0.00000000	      0.00000000	     -0.00042092	      0.00000000	      0.00000000	      0.00000000	      0.00000000	      0.00000000	      0.00000000	      0.00000000	      0.00000000	      0.00000000	      0.00000000	      0.00000000	      0.00000000	      0.00000000	      0.00000000	      0.00000000	      0.00000000	      0.00000000	      0.00000000	      0.00000000	      0.00000000	      0.00000000
      0.02500000	     10.66314916	     14.14654899	      8.68492558	     -1.87885002	      0.74041626	      0.75577009	    -23.97987464	    -16.26664244	     -1.81029751	    -35.14265749	     -5.00000000	     -2.48616215	     -2.80053688	     -5.00000000	      3.07003883	     -7.67024161	      1.88651561	     -1.47094731	      1.15990157	     11.09259637	      8.92472304	      3.50748233	    -22.05526988	      5.00000000	     -1.60251746	     -1.12092566	      5.00000000	     -3.80848324	      0.01879966	      4.18845053	      0.44128486	     -1.96014021	    -32.06336740	    -17.13206498	     10.04105860	      0.00000000	      0.00000000	      0.00000000	      0.00000000	      0.00000000	      0.00000000	      0.00000000	      0.00000000	      0.00000000	     -0.00042092	      0.00000000	      0.00000000	      0.00000000	      0.00000000	      0.00000000	      0.00000000	      0.00000000	      0.00000000	      0.00000000	      0.00000000	      0.00000000	      0.00000000	      0.00000000	      0.00000000	      0.00000000	      0.00000000	      0.00000000	      0.00000000	      0.00000000	      0.00000000	      0.00000000
      0.03000000	      9.98900868	     14.59066117	      8.16285912	     -1.87275726	      0.74038325	      0.75373899	    -21.72801892	    -17.26029232	      0.80599732	    -38.16823058	     -5.00000000	     -1.08861417	     -4.13150322	     -5.00000000	      3.31356423	    -10.09703619	      3.34549557	     -1.99652586	      1.91776904	     11.23264696	      9.53501214	      1.91605241	    -21.96312121	      5.00000000	     -1.09364852	     -1.58757077	      4.97971944	     -4.74098182	      0.79979928	      6.31536672	      0.36269744	     -2.00000000	    -31.32916515	    -18.06105692	     10.60173360	      0.00000000	      0.00000000	      0.00000000	      0.00000000	      0.00000000	      0.00000000	      0.00000000	      0.00000000	      0.00000000	     -0.00042092	      0.00000000	      0.00000000	      0.00000000	      0.00000000	      0.00000000	      0.00000000	      0.00000000	      0.00000000	      0.00000000	      0.00000000	      0.00000000	      0.00000000	      0.00000000	      0.00000000	      0.00000000	      0.00000000	      0.00000000	      0.00000000	      0.00000000	      0.00000000	      0.00000000
